HIERARCHY
ROOT hips
{
  OFFSET 0 10.6860622 2.3727825e-15
  CHANNELS 6 Xposition Yposition Zposition Yrotation Xrotation Zrotation
  JOINT leftUpperLeg
  {
    OFFSET 0.6642549969 -0.9402397400000004 0
    CHANNELS 3 Yrotation Xrotation Zrotation
    JOINT leftLowerLeg
    {
      OFFSET 0 -3.997221335632195 0
      CHANNELS 3 Yrotation Xrotation Zrotation
      JOINT leftFoot
      {
        OFFSET -0.13777839790000004 -4.6145792000000005 -0.22186036399999998
        CHANNELS 3 Yrotation Xrotation Zrotation
        JOINT leftToes
        {
          OFFSET -0.03777410834999995 -0.9130806927000008 0.85230013
          CHANNELS 3 Yrotation Xrotation Zrotation
          End Site
          {
            OFFSET -0.03777410834999995 -0.9130806927000008 0.85230013
          }
        }
      }
    }
  }
  JOINT rightUpperLeg
  {
    OFFSET -0.6642778626 -0.9402397400000004 0
    CHANNELS 3 Yrotation Xrotation Zrotation
    JOINT rightLowerLeg
    {
      OFFSET 0 -3.997221452859387 0
      CHANNELS 3 Yrotation Xrotation Zrotation
      JOINT rightFoot
      {
        OFFSET 0.1377926176 -4.6145792000000005 -0.22185782299999995
        CHANNELS 3 Yrotation Xrotation Zrotation
        JOINT rightToes
        {
          OFFSET 0.037780746850000047 -0.9130806927000008 0.85230167
          CHANNELS 3 Yrotation Xrotation Zrotation
          End Site
          {
            OFFSET 0.037780746850000047 -0.9130806927000008 0.85230167
          }
        }
      }
    }
  }
  JOINT spine
  {
    OFFSET 0 0.13988381660000015 0
    CHANNELS 3 Yrotation Xrotation Zrotation
    JOINT chest
    {
      OFFSET 0 0.6191039003973773 0
      CHANNELS 3 Yrotation Xrotation Zrotation
      JOINT upperChest
      {
        OFFSET 0 0.9855186130586943 0
        CHANNELS 3 Yrotation Xrotation Zrotation
        JOINT leftShoulder
        {
          OFFSET 0.1807663869 1.5087829790000005 0
          CHANNELS 3 Yrotation Xrotation Zrotation
          JOINT leftUpperArm
          {
            OFFSET 0.5985063006419806 0 0
            CHANNELS 3 Yrotation Xrotation Zrotation
            JOINT leftLowerArm
            {
              OFFSET 2.2993332369501065 0 0
              CHANNELS 3 Yrotation Xrotation Zrotation
              JOINT leftHand
              {
                OFFSET 2.395047042602395 0 0
                CHANNELS 3 Yrotation Xrotation Zrotation
                JOINT leftIndexProximal
                {
                  OFFSET 0.5766295810000004 0.04556643899499946 0.17265095988184
                  CHANNELS 3 Yrotation Xrotation Zrotation
                  JOINT leftIndexIntermediate
                  {
                    OFFSET 0.2957229000000008 -0.019352197700001517 -0.007932640616999987
                    CHANNELS 3 Yrotation Xrotation Zrotation
                    JOINT leftIndexDistal
                    {
                      OFFSET 0.19008243099999922 -0.012484908149998475 -0.002786250786000012
                      CHANNELS 3 Yrotation Xrotation Zrotation
                      End Site
                      {
                        OFFSET 0.19008243099999922 -0.012484908149998475 -0.002786250786000012
                      }
                    }
                  }
                }
                JOINT leftMiddleProximal
                {
                  OFFSET 0.5834975091000001 0.0524350405149987 0.02204081888183999
                  CHANNELS 3 Yrotation Xrotation Zrotation
                  JOINT leftMiddleIntermediate
                  {
                    OFFSET 0.33880573540000003 -0.019871473270000717 -0.00000971183179999946
                    CHANNELS 3 Yrotation Xrotation Zrotation
                    JOINT leftMiddleDistal
                    {
                      OFFSET 0.20676022730000088 -0.012221336379999448 0.0001471936708000235
                      CHANNELS 3 Yrotation Xrotation Zrotation
                      End Site
                      {
                        OFFSET 0.20676022730000088 -0.012221336379999448 0.0001471936708000235
                      }
                    }
                  }
                }
                JOINT leftLittleProximal
                {
                  OFFSET 0.5344154683999995 -0.012880921405001189 -0.24414037221816004
                  CHANNELS 3 Yrotation Xrotation Zrotation
                  JOINT leftLittleIntermediate
                  {
                    OFFSET 0.21758961730000093 -0.011650919939999227 0.011893592810000034
                    CHANNELS 3 Yrotation Xrotation Zrotation
                    JOINT leftLittleDistal
                    {
                      OFFSET 0.1475273964999999 -0.008152365682999818 0.006001092492999946
                      CHANNELS 3 Yrotation Xrotation Zrotation
                      End Site
                      {
                        OFFSET 0.1475273964999999 -0.008152365682999818 0.006001092492999946
                      }
                    }
                  }
                }
                JOINT leftRingProximal
                {
                  OFFSET 0.5799399463000003 0.026911854694997794 -0.12150566991816003
                  CHANNELS 3 Yrotation Xrotation Zrotation
                  JOINT leftRingIntermediate
                  {
                    OFFSET 0.26167887460000006 -0.013480186499999602 0.010996293000000053
                    CHANNELS 3 Yrotation Xrotation Zrotation
                    JOINT leftRingDistal
                    {
                      OFFSET 0.17667108799999987 -0.008990287899999228 0.0055541023999999065
                      CHANNELS 3 Yrotation Xrotation Zrotation
                      End Site
                      {
                        OFFSET 0.17667108799999987 -0.008990287899999228 0.0055541023999999065
                      }
                    }
                  }
                }
                JOINT leftThumbProximal
                {
                  OFFSET 0.11018806699999972 -0.09448718900500053 0.17047963138184
                  CHANNELS 3 Yrotation Xrotation Zrotation
                  JOINT leftThumbIntermediate
                  {
                    OFFSET 0.31062601459999983 -0.08126270900000132 0.15443142000000007
                    CHANNELS 3 Yrotation Xrotation Zrotation
                    JOINT leftThumbDistal
                    {
                      OFFSET 0.21627175790000086 -0.08833193599999878 0.018771167799999988
                      CHANNELS 3 Yrotation Xrotation Zrotation
                      End Site
                      {
                        OFFSET 0.21627175790000086 -0.08833193599999878 0.018771167799999988
                      }
                    }
                  }
                }
              }
            }
          }
        }
        JOINT neck
        {
          OFFSET 0 1.5463305265074576 0
          CHANNELS 3 Yrotation Xrotation Zrotation
          JOINT head
          {
            OFFSET 0 0.8456443600000344 0
            CHANNELS 3 Yrotation Xrotation Zrotation
            JOINT leftEye
            {
              OFFSET 0.30408573140000006 0.5104519199999995 0.1276382305
              CHANNELS 3 Yrotation Xrotation Zrotation
              End Site
              {
                OFFSET 0.30408573140000006 0.5104519199999995 0.1276382305
              }
            }
            JOINT rightEye
            {
              OFFSET -0.30409491089999996 0.5104519199999995 0.1276379445
              CHANNELS 3 Yrotation Xrotation Zrotation
              End Site
              {
                OFFSET -0.30409491089999996 0.5104519199999995 0.1276379445
              }
            }
            JOINT jaw
            {
              OFFSET -3.155239131000001e-7 -0.11984121820000082 0.60178107
              CHANNELS 3 Yrotation Xrotation Zrotation
              End Site
              {
                OFFSET -3.155239131000001e-7 -0.11984121820000082 0.60178107
              }
            }
          }
        }
        JOINT rightShoulder
        {
          OFFSET -0.1807303465 1.5087829790000005 0
          CHANNELS 3 Yrotation Xrotation Zrotation
          JOINT rightUpperArm
          {
            OFFSET -0.5985063796536958 0 0
            CHANNELS 3 Yrotation Xrotation Zrotation
            JOINT rightLowerArm
            {
              OFFSET -2.2993322059002854 0 0
              CHANNELS 3 Yrotation Xrotation Zrotation
              JOINT rightHand
              {
                OFFSET -2.395045314457259 0 0
                CHANNELS 3 Yrotation Xrotation Zrotation
                JOINT rightIndexProximal
                {
                  OFFSET -0.5764487688300002 0.0441371204405987 0.17361932004999997
                  CHANNELS 3 Yrotation Xrotation Zrotation
                  JOINT rightIndexIntermediate
                  {
                    OFFSET -0.29573011380000047 -0.01934826376999843 -0.007698921482999974
                    CHANNELS 3 Yrotation Xrotation Zrotation
                    JOINT rightIndexDistal
                    {
                      OFFSET -0.19008373999999884 -0.012503266380000655 -0.0026365778999999897
                      CHANNELS 3 Yrotation Xrotation Zrotation
                      End Site
                      {
                        OFFSET -0.19008373999999884 -0.012503266380000655 -0.0026365778999999897
                      }
                    }
                  }
                }
                JOINT rightMiddleProximal
                {
                  OFFSET -0.5834852037300005 0.05211639405060153 0.02307162440000001
                  CHANNELS 3 Yrotation Xrotation Zrotation
                  JOINT rightMiddleIntermediate
                  {
                    OFFSET -0.33880114510000003 -0.019952774050000954 0.0002455003561999819
                    CHANNELS 3 Yrotation Xrotation Zrotation
                    JOINT rightMiddleDistal
                    {
                      OFFSET -0.20675694929999955 -0.012273788999999091 0.00030209124000002766
                      CHANNELS 3 Yrotation Xrotation Zrotation
                      End Site
                      {
                        OFFSET -0.20675694929999955 -0.012273788999999091 0.00030209124000002766
                      }
                    }
                  }
                }
                JOINT rightLittleProximal
                {
                  OFFSET -0.5346811737299992 -0.011214256288399227 -0.24363941305000003
                  CHANNELS 3 Yrotation Xrotation Zrotation
                  JOINT rightLittleIntermediate
                  {
                    OFFSET -0.21757715980000092 -0.011771559690000988 0.01201554387
                    CHANNELS 3 Yrotation Xrotation Zrotation
                    JOINT rightLittleDistal
                    {
                      OFFSET -0.1475201849000004 -0.00822055339600003 0.006082065407000015
                      CHANNELS 3 Yrotation Xrotation Zrotation
                      End Site
                      {
                        OFFSET -0.1475201849000004 -0.00822055339600003 0.006082065407000015
                      }
                    }
                  }
                }
                JOINT rightRingProximal
                {
                  OFFSET -0.5800810755299999 0.027657985680600072 -0.12066365025000003
                  CHANNELS 3 Yrotation Xrotation Zrotation
                  JOINT rightRingIntermediate
                  {
                    OFFSET -0.26166445029999974 -0.013623118409999302 0.011164098990000045
                    CHANNELS 3 Yrotation Xrotation Zrotation
                    JOINT rightRingDistal
                    {
                      OFFSET -0.17666387530000027 -0.009072900100000503 0.005668185599999959
                      CHANNELS 3 Yrotation Xrotation Zrotation
                      End Site
                      {
                        OFFSET -0.17666387530000027 -0.009072900100000503 0.005668185599999959
                      }
                    }
                  }
                }
                JOINT rightThumbProximal
                {
                  OFFSET -0.10997596379000074 -0.09577489355940072 0.16989765924999997
                  CHANNELS 3 Yrotation Xrotation Zrotation
                  JOINT rightThumbIntermediate
                  {
                    OFFSET -0.31036620999999986 -0.08229339117999834 0.15440884469999996
                    CHANNELS 3 Yrotation Xrotation Zrotation
                    JOINT rightThumbDistal
                    {
                      OFFSET -0.21631306399999906 -0.08825326400000111 0.018656797720000014
                      CHANNELS 3 Yrotation Xrotation Zrotation
                      End Site
                      {
                        OFFSET -0.21631306399999906 -0.08825326400000111 0.018656797720000014
                      }
                    }
                  }
                }
              }
            }
          }
        }
      }
    }
  }
}
MOTION
Frames: 4
Frame Time: 0.03333333333333333
0.035376422107219696 -3.3795441221496585 -0.5994278788566589 2.134624664031957 6.986042245781295 -3.327038900744134 -52.65661457188817 -75.59739234651491 69.32579573738106 12.408414265104307 88.24397687719514 10.11171454303656 2.9696495890481946 17.068825799206806 -12.270583368690792 -0.3268290980324579 -28.77232244794364 1.3200962618854222 -19.099311839664466 -79.82952336585676 8.312767916352426 3.8208244668292024 63.667103165019824 5.629011241261668 -1.179910786596716 9.896504174678745 1.12756913009551 0.0000020868654344797663 0.000002767207759505523 -2.695945014645774e-8 -1.1905106903967262 10.300722376737749 0.16271737523885457 -7.104166782940169 41.0897065708923 -2.6781559647937327 0 0 0 -9.176756324144524 7.520581337642527 -10.382816951341752 -27.68790103713156 -22.18247141213278 -37.584089509141656 -87.41558243365431 2.1885503893790577 0.7396428226288172 -52.70258356500744 78.50359035076073 -92.06737877019894 0.39862554331125094 -11.013095368180045 -19.157579675848403 1.5634107871128713 0.6816199183659912 -22.933875418213145 -1.281281483810888e-10 1.793762613445802e-24 1.6042536111691759e-12 0.6210401727348706 -4.785450764195606 -33.836443170021106 -1.9139631154331984 -0.6886096759416823 -35.0793539715906 1.1399788815851744e-10 6.3611093629270335e-15 -1.4408050536242611e-12 -2.266648873015803 2.3551728265556546 -51.16697368324478 -8.324697200844327 -3.820436130306282 -48.37064581058996 4.171116073730225e-11 5.950788745874541e-26 -1.634838641478621e-13 2.20275193223655 -0.5798592883297057 -40.556352364179745 -2.8761104493469336 -1.4615096901744493 -40.326934997196254 3.7224967725249465e-7 -0.000004029587113018112 -0.0000014151723861880957 14.001867452501696 3.619496664158853 -5.96676228397416 9.406875451760651 3.2458988672997515 2.082400431113258 -0.000006883578520673388 0.0000064384958714371726 0.000005734643700428005 8.822211656195144 -8.8783605099028 -3.3952679212721315 2.985416199509448 -39.964377699031864 -0.8591369499908548 0 0 0 0 0 0 0 0 0 0.0000017750045672976579 0.00003659363464364618 0.000017289124777425856 28.25928667221061 -21.51895110987892 49.12529274298205 74.74811426682741 1.94308698668376 -0.7142540265707171 -2.548180890335541 57.99161604916699 -21.7960027565871 -0.5370949298168428 0.5327440755257791 32.318570779856685 -0.8988051180271945 0.09195685062548889 17.14620275134635 3.933694872703174e-10 3.1805546814635168e-15 -4.874754472204794e-12 -1.03295122050876 -0.565386621957833 29.384614531159787 1.076708221335894 -0.2026875003300154 17.092956767435364 1.215836204053751e-9 -3.180554491887685e-15 -1.6036856771618462e-11 -18.11206551469969 -8.158551378567607 45.23632736809384 2.2995826559369754 -0.4486569265567085 20.588252166299476 1.6628260911929426e-9 -3.1805543023118527e-15 -2.179830267765673e-11 -14.021679582129263 -6.563466067221352 33.823825645350425 0.32263178943668297 -0.22904289300011807 18.855455738837822 9.319827352578769e-8 0.0000017120387446021636 0.000001695952058800944 2.8215537844204106 -29.022963067642607 0.562597356327775 -22.16163336534285 5.756510373570754 -7.450488290285842 -0.00001537236639930789 0.000009634301338042777 -0.000010855907914316072
0.03547248989343643 -3.37950120680542 -0.5994144082069397 2.1400046230226897 6.9965552350768245 -3.343353164111856 -52.72718885126585 -75.60186897762047 69.40262191436881 12.271074338320036 88.24431124597663 9.974150436079182 2.965486627548972 17.068832944108607 -12.25779888042835 -0.32681000745886873 -28.771143880955837 1.3200433855575877 -19.169623071016353 -79.83466922076583 8.383904028819968 3.818472062388381 63.66843509489971 5.626917683083784 -1.190059399641437 9.891492261147235 1.1249318852818404 0.000013188744318530399 0.004767255684586279 0.00019941694598401053 -1.1898056153293923 10.300097590506644 0.16260407917574235 -7.10312450715122 41.08716007610009 -2.679327657132442 0 0 0 -9.174445634479426 7.51863937746255 -10.4021488663395 -27.696891034523297 -22.150418428298476 -37.55969614380396 -87.44281444615146 2.1903021175874327 0.7399009106928681 -54.1229533189409 78.37110250202464 -93.46928407062182 0.16747917911904925 -10.958812288602278 -18.241071609162116 1.5650334256601681 0.6823875152523614 -22.959713175021147 -1.281281483810888e-10 1.793762613445802e-24 1.6042536111691759e-12 0.4800481939291582 -4.8660299802007625 -33.22547708371183 -1.9153788872567017 -0.6905633048995944 -35.121332122544956 1.1399788815851744e-10 6.3611093629270335e-15 -1.4408050536242611e-12 -2.2606662402853726 2.359245357824781 -50.775817632645314 -8.327348090066451 -3.823153331068796 -48.389688246758745 4.171116073730225e-11 5.950788745874541e-26 -1.634838641478621e-13 2.224460230221436 -0.5667284994516796 -39.93934986567439 -2.875806217888972 -1.4591468512345296 -40.34986484715236 3.7224967725249465e-7 -0.000004029587113018112 -0.0000014151723861880957 13.653160765252517 3.433617025522184 -5.980914128950862 9.059847795539216 3.0598351504832793 2.1364453949475823 -0.000006883578520673388 0.0000064384958714371726 0.000005734643700428005 8.821645945886386 -8.900786166849946 -3.395342657805212 2.9881474604762412 -40.00989959377653 -0.8742913300145511 0 0 0 0 0 0 0 0 0 -0.042007546022927084 -0.007378643709105629 0.000803549932044248 28.29948184031315 -21.52702931528739 49.13057161136593 74.72455398555888 1.9418948605086748 -0.7135076195093233 -2.5067156027608184 57.98885853091729 -21.771341880393518 -0.5336172682080877 0.5301760273655345 32.338494094205586 -0.8987752395873262 0.09195442270355546 17.145739879460603 3.933694872703174e-10 3.1805546814635168e-15 -4.874754472204794e-12 -1.0589439731170907 -0.5612607214798302 29.407956151011884 1.0771146342072278 -0.20286774107966793 17.098652866092774 1.215836204053751e-9 -3.180554491887685e-15 -1.6036856771618462e-11 -18.119652999717147 -8.152213757442675 45.27772215131501 2.2995771107073013 -0.4486551655945749 20.588252166299476 1.6628260911929426e-9 -3.1805543023118527e-15 -2.179830267765673e-11 -14.006582182735656 -6.562021407288467 33.86033576907672 0.3237932977714516 -0.2294558292656095 18.87143902292634 9.319827352578769e-8 0.0000017120387446021636 0.000001695952058800944 2.8382399173552195 -29.022767791315296 0.5484156236307488 -22.128080892886487 5.744119960013409 -7.4467998884173685 -0.00001537236639930789 0.000009634301338042777 -0.000010855907914316072
0.035741064697504044 -3.379387719561768 -0.5992839336395264 2.152843141300809 7.018947521994554 -3.3718669235037866 -52.85451234052757 -75.61477094374611 69.54322661944927 12.091029736595392 88.24531473450065 9.79373639004593 2.9529561163656055 17.067889819436 -12.231881660084117 -0.3267646922972914 -28.768853018581765 1.3199275216118362 -19.307686023907177 -79.84580159683992 8.520025334246728 3.8146581520541605 63.67091434486436 5.623512436788336 -1.2076423224296167 9.88059250141127 1.1197204952860795 0.00003081116863640023 0.01518111613429417 0.0006425535549810345 -1.1892871880378837 10.298758643072857 0.16239507896269717 -7.104285120434919 41.08159619241597 -2.6820017258502538 0 0 0 -9.171469058502367 7.514438572698201 -10.449793665969574 -27.66936179631149 -22.052564031514745 -37.50152328099251 -87.54618009590867 2.196812857115938 0.7407687310617449 -57.80285874181882 77.8976287033381 -97.20169948603869 -0.37123267388424686 -10.876566922262109 -16.467217831699518 1.566582249044502 0.6831404903481925 -22.984122323127586 -1.281281483810888e-10 1.793762613445802e-24 1.6042536111691759e-12 0.21877503094999645 -4.978961512609053 -31.896145996301527 -1.9185024125644699 -0.6948403831167363 -35.2138883664799 1.1399788815851744e-10 6.3611093629270335e-15 -1.4408050536242611e-12 -2.2434713912350155 2.3757094947582047 -49.91406881052431 -8.334921094642134 -3.8310619702559636 -48.44423819352376 4.171116073730225e-11 5.950788745874541e-26 -1.634838641478621e-13 2.2804648042134534 -0.5161104807039748 -38.71515498240824 -2.8743861866264955 -1.454481497993714 -40.37321097924731 3.7224967725249465e-7 -0.000004029587113018112 -0.0000014151723861880957 12.989622793718699 3.079695743763155 -5.995446680639906 8.394804203621316 2.7064564676493132 2.2429977882073135 -0.000006883578520673388 0.0000064384958714371726 0.000005734643700428005 8.820352072988944 -8.967951257533286 -3.39659790447617 2.99124142752422 -40.152054042631626 -0.9052195333527755 0 0 0 0 0 0 0 0 0 -0.12793648200013177 -0.0224454495998977 0.0046929363698033156 28.38814381687166 -21.5431007919291 49.136334765333096 74.672237919669 1.9444523160295255 -0.7151418899490146 -2.4218682346492812 57.975119203262956 -21.722195902771027 -0.5288864760169532 0.5265295651651802 32.366300398548816 -0.8993194544454033 0.09163809916163743 17.15571629064201 3.933694872703174e-10 3.1805546814635168e-15 -4.874754472204794e-12 -1.062117165373945 -0.5645661589567633 29.45630997218706 1.0774608021166248 -0.20301146943850104 17.103418948765125 1.215836204053751e-9 -3.180554491887685e-15 -1.6036856771618462e-11 -18.133405589956233 -8.140446127343466 45.34528439223085 2.2995909737814055 -0.4486468410463123 20.58824896922334 1.6628260911929426e-9 -3.1805543023118527e-15 -2.179830267765673e-11 -14.004723256684624 -6.556910558927916 33.92271241561043 0.3249380703125317 -0.22982495593028673 18.88682562883589 9.319827352578769e-8 0.0000017120387446021636 0.000001695952058800944 2.86320417760967 -29.02287519324962 0.5287260664049372 -22.0926254704627 5.730877330422809 -7.443177144686489 -0.00001537236639930789 0.000009634301338042777 -0.000010855907914316072
0.03625229001045227 -3.379360063006592 -0.5988019108772278 2.166968810707791 7.041249268560758 -3.3924437613514953 -52.95420044392534 -75.63470262459188 69.65571325423133 11.98088745757503 88.25078826813703 9.68335783770906 2.933298864870067 17.058123043380807 -12.204202766123062 -0.3267162499715609 -28.766581685979574 1.3198104713909145 -19.434420296028026 -79.8570236319318 8.63731121012137 3.8125895540368884 63.67366333195901 5.621670481003229 -1.217925773735325 9.87087081324913 1.1137324980440253 0.000057229117693414344 0.026761520907067897 0.0011312637646475633 -1.1903147010013855 10.296195307851924 0.16210032777290956 -7.110049815812887 41.07119009449975 -2.6845210729578435 0 0 0 -9.169446328676605 7.508785893375837 -10.516761151512798 -27.589466690106818 -21.888034174932038 -37.409116493868446 -87.72848904519654 2.2085376426157426 0.7423403033258328 -62.1955734759014 77.06351948651019 -101.8303638709535 -0.9345929554236636 -10.82779717642947 -14.971371192351874 1.565811191326804 0.6828668898160313 -22.970886293709803 -1.281281483810888e-10 1.793762613445802e-24 1.6042536111691759e-12 0.0036067043694120796 -5.026105901936405 -30.583037251766456 -1.9234126034214623 -0.6993590477772695 -35.30207658074455 1.1399788815851744e-10 6.3611093629270335e-15 -1.4408050536242611e-12 -2.2146249040509614 2.411572599640342 -48.97212579264131 -8.346753320148435 -3.8436684538088186 -48.53012834290815 4.171116073730225e-11 5.950788745874541e-26 -1.634838641478621e-13 2.3449464293025915 -0.44489377812283026 -37.600881780548306 -2.87305978454733 -1.4518218847913136 -40.37570314438432 3.7224967725249465e-7 -0.000004029587113018112 -0.0000014151723861880957 12.433344597109805 2.778342230949491 -5.958453464818914 7.874397342064205 2.433050110983901 2.329469139700465 -0.000006883578520673388 0.0000064384958714371726 0.000005734643700428005 8.81676620714138 -9.072346567561262 -3.3968172947059196 2.9801688589579216 -40.3814163527024 -0.930811752288569 0 0 0 0 0 0 0 0 0 -0.2050663054823338 -0.0353739588352653 0.02407908395536054 28.481201138641836 -21.553860772665455 49.124474658155826 74.61602178974891 1.9514434261331828 -0.7215826463184861 -2.3393671268454144 57.95395690328247 -21.667822371976534 -0.5216228944460153 0.5211837048398053 32.40783635292269 -0.8964429049656247 0.09309140388887455 17.099054870340876 3.933694872703174e-10 3.1805546814635168e-15 -4.874754472204794e-12 -1.0490038045391012 -0.5688942026532654 29.47062798880142 1.0775859653257587 -0.20307015340494466 17.105518390345644 1.215836204053751e-9 -3.180554491887685e-15 -1.6036856771618462e-11 -18.13636360193809 -8.13545680487317 45.37744646467842 2.299588414444668 -0.44864641414640166 20.58824577214707 1.6628260911929426e-9 -3.1805543023118527e-15 -2.179830267765673e-11 -14.018055799073492 -6.549395206154952 33.94047375174715 0.32478218515076335 -0.22977986564692018 18.884876240409238 9.319827352578769e-8 0.0000017120387446021636 0.000001695952058800944 2.8724218404416413 -29.02265257845538 0.5220224830669158 -22.070501621453893 5.719812294846221 -7.438583055300775 -0.00001537236639930789 0.000009634301338042777 -0.000010855907914316072
